<?xml version="1.0" standalone="no"?>
<!DOCTYPE svg PUBLIC "-//W3C//DTD SVG 20010904//EN"
 "http://www.w3.org/TR/2001/REC-SVG-20010904/DTD/svg10.dtd">
<svg version="1.0" xmlns="http://www.w3.org/2000/svg"
 width="200.000000pt" height="200.000000pt" viewBox="0 0 200.000000 200.000000"
 preserveAspectRatio="xMidYMid meet">

<g transform="translate(0.000000,200.000000) scale(0.100000,-0.100000)"
fill="#000000" stroke="none">
<path d="M895 1994 c-358 -49 -639 -248 -790 -559 -77 -158 -99 -254 -99 -435
0 -181 22 -277 99 -435 138 -284 376 -469 705 -546 31 -8 114 -13 190 -13 76
0 159 5 190 13 329 77 567 262 705 546 77 158 99 254 99 435 0 181 -22 277
-99 435 -136 279 -376 469 -685 541 -65 15 -258 26 -315 18z m134 -381 c11
-10 55 -79 98 -153 112 -194 116 -168 -76 -505 -85 -148 -162 -282 -172 -296
-35 -51 -71 -59 -252 -59 -176 0 -197 5 -197 51 0 24 524 949 547 967 22 16
27 15 52 -5z m374 -645 c71 -112 177 -305 177 -320 0 -9 -7 -24 -16 -32 -24
-24 -409 -24 -436 1 -10 9 -18 24 -18 33 0 13 141 263 196 348 26 39 60 29 97
-30z"/>
</g>
</svg>
